  0
SECTION
  2
HEADER
  9
$ACADVER
  1
AC1009
  9
$EXTMIN
 10
0.0
 20
0.0
 30
0.0
  9
$EXTMAX
 10
1000.0
 20
1000.0
 30
0.0
  9
$FILLMODE
 70
 0
  9
$SPLFRAME
 70
 1
  0
ENDSEC
  0
SECTION
  2
TABLES
  0
TABLE
  2
LAYER
 70
1
  0
LAYER
  2
0
 70
     0
 62
     7
  6
CONTINUOUS
  0
ENDTAB
  0
ENDSEC
  0
SECTION
  2
ENTITIES
  0
POLYLINE
  8
0
 62
     0
 66
     1
 10
0
 20
0
 30
0.0
 70
     1
 40
6.30465
 41
6.30465
  0
VERTEX
  8
0
 10
1.6351
 20
0.900065
 30
0.0
 40
0.0875646
 41
0.0875646
  0
VERTEX
  8
0
 10
1.61925
 20
0.74311
 30
0.0
 40
0.0875646
 41
0.0875646
  0
VERTEX
  8
0
 10
1.57383
 20
0.596897
 30
0.0
 40
0.0875646
 41
0.0875646
  0
VERTEX
  8
0
 10
1.50201
 20
0.464572
 30
0.0
 40
0.0875646
 41
0.0875646
  0
VERTEX
  8
0
 10
1.4069
 20
0.349283
 30
0.0
 40
0.0875646
 41
0.0875646
  0
VERTEX
  8
0
 10
1.29161
 20
0.254178
 30
0.0
 40
0.0875646
 41
0.0875646
  0
VERTEX
  8
0
 10
1.15929
 20
0.182346
 30
0.0
 40
0.0875646
 41
0.0875646
  0
VERTEX
  8
0
 10
1.01302
 20
0.136936
 30
0.0
 40
0.0875646
 41
0.0875646
  0
VERTEX
  8
0
 10
0.856065
 20
0.121094
 30
0.0
 40
0.0875646
 41
0.0875646
  0
VERTEX
  8
0
 10
0.699056
 20
0.136936
 30
0.0
 40
0.0875646
 41
0.0875646
  0
VERTEX
  8
0
 10
0.552843
 20
0.182346
 30
0.0
 40
0.0875646
 41
0.0875646
  0
VERTEX
  8
0
 10
0.420518
 20
0.254178
 30
0.0
 40
0.0875646
 41
0.0875646
  0
VERTEX
  8
0
 10
0.305231
 20
0.349283
 30
0.0
 40
0.0875646
 41
0.0875646
  0
VERTEX
  8
0
 10
0.210124
 20
0.464572
 30
0.0
 40
0.0875646
 41
0.0875646
  0
VERTEX
  8
0
 10
0.138292
 20
0.596897
 30
0.0
 40
0.0875646
 41
0.0875646
  0
VERTEX
  8
0
 10
0.0928819
 20
0.74311
 30
0.0
 40
0.0875646
 41
0.0875646
  0
VERTEX
  8
0
 10
0.0770942
 20
0.900065
 30
0.0
 40
0.0875646
 41
0.0875646
  0
VERTEX
  8
0
 10
0.0928819
 20
1.05707
 30
0.0
 40
0.0875646
 41
0.0875646
  0
VERTEX
  8
0
 10
0.138292
 20
1.20329
 30
0.0
 40
0.0875646
 41
0.0875646
  0
VERTEX
  8
0
 10
0.210124
 20
1.33561
 30
0.0
 40
0.0875646
 41
0.0875646
  0
VERTEX
  8
0
 10
0.305231
 20
1.4509
 30
0.0
 40
0.0875646
 41
0.0875646
  0
VERTEX
  8
0
 10
0.420518
 20
1.546
 30
0.0
 40
0.0875646
 41
0.0875646
  0
VERTEX
  8
0
 10
0.552843
 20
1.61783
 30
0.0
 40
0.0875646
 41
0.0875646
  0
VERTEX
  8
0
 10
0.699056
 20
1.66325
 30
0.0
 40
0.0875646
 41
0.0875646
  0
VERTEX
  8
0
 10
0.856065
 20
1.67904
 30
0.0
 40
0.0875646
 41
0.0875646
  0
VERTEX
  8
0
 10
1.01302
 20
1.66325
 30
0.0
 40
0.0875646
 41
0.0875646
  0
VERTEX
  8
0
 10
1.15929
 20
1.61783
 30
0.0
 40
0.0875646
 41
0.0875646
  0
VERTEX
  8
0
 10
1.29161
 20
1.546
 30
0.0
 40
0.0875646
 41
0.0875646
  0
VERTEX
  8
0
 10
1.4069
 20
1.4509
 30
0.0
 40
0.0875646
 41
0.0875646
  0
VERTEX
  8
0
 10
1.50201
 20
1.33561
 30
0.0
 40
0.0875646
 41
0.0875646
  0
VERTEX
  8
0
 10
1.57383
 20
1.20329
 30
0.0
 40
0.0875646
 41
0.0875646
  0
VERTEX
  8
0
 10
1.61925
 20
1.05707
 30
0.0
 40
0.0875646
 41
0.0875646
  0
VERTEX
  8
0
 10
1.6351
 20
0.900065
 30
0.0
 40
0.0875646
 41
0.0875646
  0
SEQEND
 8
0
  0
POLYLINE
  8
0
 62
     0
 66
     1
 10
0
 20
0
 30
0.0
 40
5.92385
 41
5.92385
  0
VERTEX
  8
0
 10
1.66515
 20
0.900065
 30
0.0
 40
0.0822757
 41
0.0822757
  0
VERTEX
  8
0
 10
3.33469
 20
0.900065
 30
0.0
 40
0.0822757
 41
0.0822757
  0
SEQEND
 8
0
  0
POLYLINE
  8
0
 62
     0
 66
     1
 10
0
 20
0
 30
0.0
 40
11.8477
 41
11.8477
  0
VERTEX
  8
0
 10
4.699
 20
0.344997
 30
0.0
 40
0.164551
 41
0.164551
  0
VERTEX
  8
0
 10
4.57585
 20
0.244413
 30
0.0
 40
0.164551
 41
0.164551
  0
VERTEX
  8
0
 10
4.43929
 20
0.172581
 30
0.0
 40
0.164551
 41
0.164551
  0
VERTEX
  8
0
 10
4.29383
 20
0.129449
 30
0.0
 40
0.164551
 41
0.164551
  0
VERTEX
  8
0
 10
4.14388
 20
0.115072
 30
0.0
 40
0.164551
 41
0.164551
  0
VERTEX
  8
0
 10
3.99392
 20
0.129449
 30
0.0
 40
0.164551
 41
0.164551
  0
VERTEX
  8
0
 10
3.84847
 20
0.172581
 30
0.0
 40
0.164551
 41
0.164551
  0
VERTEX
  8
0
 10
3.71192
 20
0.244413
 30
0.0
 40
0.164551
 41
0.164551
  0
VERTEX
  8
0
 10
3.58882
 20
0.344997
 30
0.0
 40
0.164551
 41
0.164551
  0
VERTEX
  8
0
 10
3.48822
 20
0.468153
 30
0.0
 40
0.164551
 41
0.164551
  0
VERTEX
  8
0
 10
3.41635
 20
0.60471
 30
0.0
 40
0.164551
 41
0.164551
  0
VERTEX
  8
0
 10
3.37326
 20
0.750163
 30
0.0
 40
0.164551
 41
0.164551
  0
VERTEX
  8
0
 10
3.35889
 20
0.900119
 30
0.0
 40
0.164551
 41
0.164551
  0
VERTEX
  8
0
 10
3.37326
 20
1.05008
 30
0.0
 40
0.164551
 41
0.164551
  0
VERTEX
  8
0
 10
3.41635
 20
1.19553
 30
0.0
 40
0.164551
 41
0.164551
  0
VERTEX
  8
0
 10
3.48822
 20
1.33209
 30
0.0
 40
0.164551
 41
0.164551
  0
VERTEX
  8
0
 10
3.58882
 20
1.45518
 30
0.0
 40
0.164551
 41
0.164551
  0
VERTEX
  8
0
 10
3.71192
 20
1.55578
 30
0.0
 40
0.164551
 41
0.164551
  0
VERTEX
  8
0
 10
3.84847
 20
1.62765
 30
0.0
 40
0.164551
 41
0.164551
  0
VERTEX
  8
0
 10
3.99392
 20
1.67074
 30
0.0
 40
0.164551
 41
0.164551
  0
VERTEX
  8
0
 10
4.14388
 20
1.68511
 30
0.0
 40
0.164551
 41
0.164551
  0
VERTEX
  8
0
 10
4.29383
 20
1.67074
 30
0.0
 40
0.164551
 41
0.164551
  0
VERTEX
  8
0
 10
4.43929
 20
1.62765
 30
0.0
 40
0.164551
 41
0.164551
  0
VERTEX
  8
0
 10
4.57585
 20
1.55578
 30
0.0
 40
0.164551
 41
0.164551
  0
VERTEX
  8
0
 10
4.699
 20
1.45518
 30
0.0
 40
0.164551
 41
0.164551
  0
SEQEND
 8
0
  0
POLYLINE
  8
0
 62
     0
 66
     1
 10
0
 20
0
 30
0.0
 70
     1
 40
0
 41
0
  0
VERTEX
  8
0
 10
4.43078
 20
0.900065
 30
0.0
 40
0
 41
0
  0
VERTEX
  8
0
 10
4.40728
 20
0.783963
 30
0.0
 40
0
 41
0
  0
VERTEX
  8
0
 10
4.34337
 20
0.689128
 30
0.0
 40
0
 41
0
  0
VERTEX
  8
0
 10
4.24854
 20
0.625163
 30
0.0
 40
0
 41
0
  0
VERTEX
  8
0
 10
4.13238
 20
0.601671
 30
0.0
 40
0
 41
0
  0
VERTEX
  8
0
 10
4.01617
 20
0.625163
 30
0.0
 40
0
 41
0
  0
VERTEX
  8
0
 10
3.92133
 20
0.689128
 30
0.0
 40
0
 41
0
  0
VERTEX
  8
0
 10
3.85736
 20
0.783963
 30
0.0
 40
0
 41
0
  0
VERTEX
  8
0
 10
3.83393
 20
0.900065
 30
0.0
 40
0
 41
0
  0
VERTEX
  8
0
 10
3.85736
 20
1.01628
 30
0.0
 40
0
 41
0
  0
VERTEX
  8
0
 10
3.92133
 20
1.11111
 30
0.0
 40
0
 41
0
  0
VERTEX
  8
0
 10
4.01617
 20
1.17508
 30
0.0
 40
0
 41
0
  0
VERTEX
  8
0
 10
4.13238
 20
1.19851
 30
0.0
 40
0
 41
0
  0
VERTEX
  8
0
 10
4.24854
 20
1.17508
 30
0.0
 40
0
 41
0
  0
VERTEX
  8
0
 10
4.34337
 20
1.11111
 30
0.0
 40
0
 41
0
  0
VERTEX
  8
0
 10
4.40728
 20
1.01628
 30
0.0
 40
0
 41
0
  0
VERTEX
  8
0
 10
4.43078
 20
0.900065
 30
0.0
 40
0
 41
0
  0
SEQEND
 8
0
  0
POLYLINE
  8
0
 62
     0
 66
     1
 10
0
 20
0
 30
0.0
 70
     1
 40
4.41798
 41
4.41798
  0
VERTEX
  8
0
 10
4.43078
 20
0.900065
 30
0.0
 40
0.0613608
 41
0.0613608
  0
VERTEX
  8
0
 10
4.40728
 20
0.783963
 30
0.0
 40
0.0613608
 41
0.0613608
  0
VERTEX
  8
0
 10
4.34337
 20
0.689128
 30
0.0
 40
0.0613608
 41
0.0613608
  0
VERTEX
  8
0
 10
4.24854
 20
0.625163
 30
0.0
 40
0.0613608
 41
0.0613608
  0
VERTEX
  8
0
 10
4.13238
 20
0.601671
 30
0.0
 40
0.0613608
 41
0.0613608
  0
VERTEX
  8
0
 10
4.01617
 20
0.625163
 30
0.0
 40
0.0613608
 41
0.0613608
  0
VERTEX
  8
0
 10
3.92133
 20
0.689128
 30
0.0
 40
0.0613608
 41
0.0613608
  0
VERTEX
  8
0
 10
3.85736
 20
0.783963
 30
0.0
 40
0.0613608
 41
0.0613608
  0
VERTEX
  8
0
 10
3.83393
 20
0.900065
 30
0.0
 40
0.0613608
 41
0.0613608
  0
VERTEX
  8
0
 10
3.85736
 20
1.01628
 30
0.0
 40
0.0613608
 41
0.0613608
  0
VERTEX
  8
0
 10
3.92133
 20
1.11111
 30
0.0
 40
0.0613608
 41
0.0613608
  0
VERTEX
  8
0
 10
4.01617
 20
1.17508
 30
0.0
 40
0.0613608
 41
0.0613608
  0
VERTEX
  8
0
 10
4.13238
 20
1.19851
 30
0.0
 40
0.0613608
 41
0.0613608
  0
VERTEX
  8
0
 10
4.24854
 20
1.17508
 30
0.0
 40
0.0613608
 41
0.0613608
  0
VERTEX
  8
0
 10
4.34337
 20
1.11111
 30
0.0
 40
0.0613608
 41
0.0613608
  0
VERTEX
  8
0
 10
4.40728
 20
1.01628
 30
0.0
 40
0.0613608
 41
0.0613608
  0
VERTEX
  8
0
 10
4.43078
 20
0.900065
 30
0.0
 40
0.0613608
 41
0.0613608
  0
SEQEND
 8
0
  0
POLYLINE
  8
0
 62
     0
 66
     1
 10
0
 20
0
 30
0.0
 40
5.92385
 41
5.92385
  0
VERTEX
  8
0
 10
4.45969
 20
0.900065
 30
0.0
 40
0.0822757
 41
0.0822757
  0
VERTEX
  8
0
 10
6.12924
 20
0.900065
 30
0.0
 40
0.0822757
 41
0.0822757
  0
SEQEND
 8
0
  0
POLYLINE
  8
0
 62
     0
 66
     1
 10
0
 20
0
 30
0.0
 70
     1
 40
6.30465
 41
6.30465
  0
VERTEX
  8
0
 10
7.72282
 20
0.900065
 30
0.0
 40
0.0875646
 41
0.0875646
  0
VERTEX
  8
0
 10
7.70697
 20
0.74311
 30
0.0
 40
0.0875646
 41
0.0875646
  0
VERTEX
  8
0
 10
7.66157
 20
0.596897
 30
0.0
 40
0.0875646
 41
0.0875646
  0
VERTEX
  8
0
 10
7.58974
 20
0.464572
 30
0.0
 40
0.0875646
 41
0.0875646
  0
VERTEX
  8
0
 10
7.49462
 20
0.349283
 30
0.0
 40
0.0875646
 41
0.0875646
  0
VERTEX
  8
0
 10
7.37933
 20
0.254178
 30
0.0
 40
0.0875646
 41
0.0875646
  0
VERTEX
  8
0
 10
7.24701
 20
0.182346
 30
0.0
 40
0.0875646
 41
0.0875646
  0
VERTEX
  8
0
 10
7.10075
 20
0.136936
 30
0.0
 40
0.0875646
 41
0.0875646
  0
VERTEX
  8
0
 10
6.94379
 20
0.121094
 30
0.0
 40
0.0875646
 41
0.0875646
  0
VERTEX
  8
0
 10
6.78678
 20
0.136936
 30
0.0
 40
0.0875646
 41
0.0875646
  0
VERTEX
  8
0
 10
6.64057
 20
0.182346
 30
0.0
 40
0.0875646
 41
0.0875646
  0
VERTEX
  8
0
 10
6.50825
 20
0.254178
 30
0.0
 40
0.0875646
 41
0.0875646
  0
VERTEX
  8
0
 10
6.39296
 20
0.349283
 30
0.0
 40
0.0875646
 41
0.0875646
  0
VERTEX
  8
0
 10
6.29785
 20
0.464572
 30
0.0
 40
0.0875646
 41
0.0875646
  0
VERTEX
  8
0
 10
6.22601
 20
0.596897
 30
0.0
 40
0.0875646
 41
0.0875646
  0
VERTEX
  8
0
 10
6.18061
 20
0.74311
 30
0.0
 40
0.0875646
 41
0.0875646
  0
VERTEX
  8
0
 10
6.16482
 20
0.900065
 30
0.0
 40
0.0875646
 41
0.0875646
  0
VERTEX
  8
0
 10
6.18061
 20
1.05707
 30
0.0
 40
0.0875646
 41
0.0875646
  0
VERTEX
  8
0
 10
6.22601
 20
1.20329
 30
0.0
 40
0.0875646
 41
0.0875646
  0
VERTEX
  8
0
 10
6.29785
 20
1.33561
 30
0.0
 40
0.0875646
 41
0.0875646
  0
VERTEX
  8
0
 10
6.39296
 20
1.4509
 30
0.0
 40
0.0875646
 41
0.0875646
  0
VERTEX
  8
0
 10
6.50825
 20
1.546
 30
0.0
 40
0.0875646
 41
0.0875646
  0
VERTEX
  8
0
 10
6.64057
 20
1.61783
 30
0.0
 40
0.0875646
 41
0.0875646
  0
VERTEX
  8
0
 10
6.78678
 20
1.66325
 30
0.0
 40
0.0875646
 41
0.0875646
  0
VERTEX
  8
0
 10
6.94379
 20
1.67904
 30
0.0
 40
0.0875646
 41
0.0875646
  0
VERTEX
  8
0
 10
7.10075
 20
1.66325
 30
0.0
 40
0.0875646
 41
0.0875646
  0
VERTEX
  8
0
 10
7.24701
 20
1.61783
 30
0.0
 40
0.0875646
 41
0.0875646
  0
VERTEX
  8
0
 10
7.37933
 20
1.546
 30
0.0
 40
0.0875646
 41
0.0875646
  0
VERTEX
  8
0
 10
7.49462
 20
1.4509
 30
0.0
 40
0.0875646
 41
0.0875646
  0
VERTEX
  8
0
 10
7.58974
 20
1.33561
 30
0.0
 40
0.0875646
 41
0.0875646
  0
VERTEX
  8
0
 10
7.66157
 20
1.20329
 30
0.0
 40
0.0875646
 41
0.0875646
  0
VERTEX
  8
0
 10
7.70697
 20
1.05707
 30
0.0
 40
0.0875646
 41
0.0875646
  0
VERTEX
  8
0
 10
7.72282
 20
0.900065
 30
0.0
 40
0.0875646
 41
0.0875646
  0
SEQEND
 8
0
  0
POLYLINE
  8
0
 62
     0
 66
     1
 10
0
 20
0
 30
0.0
 70
     1
 40
0
 41
0
  0
VERTEX
  8
0
 10
0.454428
 20
0.975097
 30
0.0
 40
0
 41
0
  0
VERTEX
  8
0
 10
1.25776
 20
0.975097
 30
0.0
 40
0
 41
0
  0
VERTEX
  8
0
 10
1.25776
 20
0.825086
 30
0.0
 40
0
 41
0
  0
VERTEX
  8
0
 10
0.454428
 20
0.825086
 30
0.0
 40
0
 41
0
  0
VERTEX
  8
0
 10
0.454428
 20
0.975097
 30
0.0
 40
0
 41
0
  0
SEQEND
 8
0
  0
POLYLINE
  8
0
 62
     0
 66
     1
 10
0
 20
0
 30
0.0
 70
     1
 40
0
 41
0
  0
VERTEX
  8
0
 10
7.40419
 20
0.841417
 30
0.0
 40
0
 41
0
  0
VERTEX
  8
0
 10
7.00467
 20
0.841417
 30
0.0
 40
0
 41
0
  0
VERTEX
  8
0
 10
7.00467
 20
0.441949
 30
0.0
 40
0
 41
0
  0
VERTEX
  8
0
 10
6.88297
 20
0.441949
 30
0.0
 40
0
 41
0
  0
VERTEX
  8
0
 10
6.88297
 20
0.841417
 30
0.0
 40
0
 41
0
  0
VERTEX
  8
0
 10
6.48346
 20
0.841417
 30
0.0
 40
0
 41
0
  0
VERTEX
  8
0
 10
6.48346
 20
0.958712
 30
0.0
 40
0
 41
0
  0
VERTEX
  8
0
 10
6.88297
 20
0.958712
 30
0.0
 40
0
 41
0
  0
VERTEX
  8
0
 10
6.88297
 20
1.35824
 30
0.0
 40
0
 41
0
  0
VERTEX
  8
0
 10
7.00467
 20
1.35824
 30
0.0
 40
0
 41
0
  0
VERTEX
  8
0
 10
7.00467
 20
0.958712
 30
0.0
 40
0
 41
0
  0
VERTEX
  8
0
 10
7.40419
 20
0.958712
 30
0.0
 40
0
 41
0
  0
VERTEX
  8
0
 10
7.40419
 20
0.841417
 30
0.0
 40
0
 41
0
  0
SEQEND
 8
0
  0
ENDSEC
  0
EOF
