<?xml version="1.0" encoding="UTF-8" standalone="no"?>
<!-- Created with Inkscape (http://www.inkscape.org/) -->

<svg
   xmlns:dc="http://purl.org/dc/elements/1.1/"
   xmlns:cc="http://creativecommons.org/ns#"
   xmlns:rdf="http://www.w3.org/1999/02/22-rdf-syntax-ns#"
   xmlns:svg="http://www.w3.org/2000/svg"
   xmlns="http://www.w3.org/2000/svg"
   xmlns:sodipodi="http://sodipodi.sourceforge.net/DTD/sodipodi-0.dtd"
   xmlns:inkscape="http://www.inkscape.org/namespaces/inkscape"
   width="196.42436mm"
   height="44.0317mm"
   id="svg2"
   version="1.1"
   inkscape:version="0.91 r13725"
   sodipodi:docname="Centre-positive.svg">
  <defs
     id="defs4" />
  <sodipodi:namedview
     id="base"
     pagecolor="#ffffff"
     bordercolor="#666666"
     borderopacity="1.0"
     inkscape:pageopacity="0.0"
     inkscape:pageshadow="2"
     inkscape:zoom="1"
     inkscape:cx="351.07251"
     inkscape:cy="83.276249"
     inkscape:document-units="mm"
     inkscape:current-layer="layer1"
     showgrid="false"
     inkscape:snap-global="false"
     inkscape:window-width="1364"
     inkscape:window-height="747"
     inkscape:window-x="0"
     inkscape:window-y="19"
     inkscape:window-maximized="0"
     units="mm"
     fit-margin-top="0"
     fit-margin-left="0"
     fit-margin-right="0"
     fit-margin-bottom="0" />
  <metadata
     id="metadata7">
    <rdf:RDF>
      <cc:Work
         rdf:about="">
        <dc:format>image/svg+xml</dc:format>
        <dc:type
           rdf:resource="http://purl.org/dc/dcmitype/StillImage" />
        <dc:title></dc:title>
      </cc:Work>
    </rdf:RDF>
  </metadata>
  <g
     inkscape:label="Layer 1"
     inkscape:groupmode="layer"
     id="layer1"
     transform="translate(300.98414,-964.34829)">
    <path
       id="path4101"
       d="m -156.82832,1042.3572 c 0,38.719 -31.38829,70.1072 -70.10771,70.1072 -38.71941,0 -70.1077,-31.3882 -70.1077,-70.1072 0,-38.7197 31.38829,-70.10792 70.1077,-70.10792 38.71942,0 70.10771,31.38822 70.10771,70.10792 z"
       style="color:#000000;display:inline;overflow:visible;visibility:visible;fill:#ffffff;fill-opacity:0;fill-rule:nonzero;stroke:#000000;stroke-width:7.88081455;stroke-linecap:butt;stroke-linejoin:miter;stroke-miterlimit:4;stroke-dashoffset:0;stroke-opacity:1;marker:none;enable-background:accumulate"
       inkscape:connector-curvature="0" />
    <path
       style="fill:none;stroke:#000000;stroke-width:7.40481186px;stroke-linecap:butt;stroke-linejoin:miter;stroke-opacity:1"
       d="m -154.12006,1042.3572 c 150.2594729,0 150.2594729,0 150.2594729,0"
       id="path4874"
       inkscape:connector-curvature="0" />
    <path
       inkscape:connector-curvature="0"
       style="color:#000000;display:inline;overflow:visible;visibility:visible;fill:#ffffff;fill-opacity:0;fill-rule:nonzero;stroke:#000000;stroke-width:14.80962372;stroke-linecap:butt;stroke-linejoin:miter;stroke-miterlimit:4;stroke-dasharray:none;stroke-dashoffset:0;stroke-opacity:1;marker:none;enable-background:accumulate"
       d="m 118.92631,1092.3144 c -27.590771,27.5913 -72.324348,27.5913 -99.915115,0 -27.5908294,-27.5903 -27.5908294,-72.3241 0,-99.91444 27.590767,-27.59123 72.324278,-27.59123 99.915115,0"
       id="path4876" />
    <path
       inkscape:connector-curvature="0"
       style="color:#000000;display:inline;overflow:visible;visibility:visible;fill:#000000;fill-opacity:1;fill-rule:nonzero;stroke:#000000;stroke-width:5.52246952;stroke-linecap:butt;stroke-linejoin:miter;stroke-miterlimit:4;stroke-dashoffset:0;stroke-opacity:1;marker:none;enable-background:accumulate"
       d="m 94.786996,1042.3572 c 0,14.8332 -12.024733,26.8581 -26.858029,26.8581 -14.833244,0 -26.857977,-12.0249 -26.857977,-26.8581 0,-14.8332 12.024733,-26.8581 26.857977,-26.8581 14.833296,0 26.858029,12.0249 26.858029,26.8581 z"
       id="path4878" />
    <path
       style="fill:none;stroke:#000000;stroke-width:7.40481186px;stroke-linecap:butt;stroke-linejoin:miter;stroke-opacity:1"
       d="m 97.389033,1042.3572 c 150.259487,0 150.259487,0 150.259487,0"
       id="path4874-1"
       inkscape:connector-curvature="0" />
    <path
       id="path4101-4"
       d="m 391.06728,1042.3572 c 0,38.719 -31.38827,70.1072 -70.1077,70.1072 -38.71942,0 -70.10769,-31.3882 -70.10769,-70.1072 0,-38.7197 31.38827,-70.10792 70.10769,-70.10792 38.71943,0 70.1077,31.38822 70.1077,70.10792 z"
       style="color:#000000;display:inline;overflow:visible;visibility:visible;fill:#ffffff;fill-opacity:0;fill-rule:nonzero;stroke:#000000;stroke-width:7.88081455;stroke-linecap:butt;stroke-linejoin:miter;stroke-miterlimit:4;stroke-dashoffset:0;stroke-opacity:1;marker:none;enable-background:accumulate"
       inkscape:connector-curvature="0" />
    <path
       style="font-style:normal;font-variant:normal;font-weight:normal;font-stretch:normal;font-size:10px;line-height:125%;font-family:Verdana;-inkscape-font-specification:Verdana;letter-spacing:0px;word-spacing:0px;fill:#000000;fill-opacity:1;stroke:none"
       id="path5064"
       d="m -190.78536,1049.109 -72.30132,0 0,-13.5036 72.30132,0 z"
       inkscape:connector-curvature="0" />
    <path
       style="font-style:normal;font-variant:normal;font-weight:normal;font-stretch:normal;font-size:10px;line-height:125%;font-family:Verdana;-inkscape-font-specification:Verdana;letter-spacing:0px;word-spacing:0px;fill:#000000;fill-opacity:1;stroke:none"
       id="path5067"
       d="m 362.39128,1047.6354 -35.95583,0 0,35.9548 -10.95173,0 0,-35.9548 -35.95585,0 0,-10.5555 35.95585,0 0,-35.9564 10.95173,0 0,35.9564 35.95583,0 z"
       inkscape:connector-curvature="0" />
  </g>
</svg>
