<?xml version="1.0" encoding="UTF-8" standalone="no"?>
<!-- Created with Inkscape (http://www.inkscape.org/) -->

<svg
   xmlns:dc="http://purl.org/dc/elements/1.1/"
   xmlns:cc="http://creativecommons.org/ns#"
   xmlns:rdf="http://www.w3.org/1999/02/22-rdf-syntax-ns#"
   xmlns:svg="http://www.w3.org/2000/svg"
   xmlns="http://www.w3.org/2000/svg"
   xmlns:xlink="http://www.w3.org/1999/xlink"
   xmlns:sodipodi="http://sodipodi.sourceforge.net/DTD/sodipodi-0.dtd"
   xmlns:inkscape="http://www.inkscape.org/namespaces/inkscape"
   width="315"
   height="200"
   id="svg3271"
   version="1.1"
   inkscape:version="0.48.4 r9939"
   sodipodi:docname="donate button.svg"
   inkscape:export-filename="/home/steve/work/people/judith/micro Museum/site/donate button paypal.png"
   inkscape:export-xdpi="31.5"
   inkscape:export-ydpi="31.5">
  <defs
     id="defs3273">
    <linearGradient
       inkscape:collect="always"
       id="linearGradient4060">
      <stop
         style="stop-color:#d5b226;stop-opacity:1;"
         offset="0"
         id="stop4062" />
      <stop
         style="stop-color:#efe0a4;stop-opacity:1"
         offset="1"
         id="stop4064" />
    </linearGradient>
    <filter
       id="filter4222"
       inkscape:label="Combined lighting"
       inkscape:menu="Bevels"
       inkscape:menu-tooltip="Basic specular bevel to use for building textures"
       color-interpolation-filters="sRGB">
      <feGaussianBlur
         id="feGaussianBlur4224"
         stdDeviation="2"
         in="SourceGraphic"
         result="result0" />
      <feDiffuseLighting
         id="feDiffuseLighting4226"
         lighting-color="#ffffff"
         diffuseConstant="1"
         surfaceScale="1"
         result="result5">
        <feDistantLight
           id="feDistantLight4228"
           elevation="45"
           azimuth="235" />
      </feDiffuseLighting>
      <feComposite
         id="feComposite4230"
         in2="SourceGraphic"
         k1="1.4"
         in="result5"
         result="fbSourceGraphic"
         operator="arithmetic"
         k2="0"
         k3="0"
         k4="0" />
      <feGaussianBlur
         id="feGaussianBlur4232"
         result="result0"
         in="fbSourceGraphic"
         stdDeviation="2" />
      <feSpecularLighting
         id="feSpecularLighting4234"
         specularExponent="25"
         specularConstant="1"
         surfaceScale="4"
         lighting-color="#ffffff"
         result="result1"
         in="result0">
        <feDistantLight
           id="feDistantLight4236"
           azimuth="235"
           elevation="45" />
      </feSpecularLighting>
      <feComposite
         id="feComposite4238"
         in2="result1"
         k3="1"
         k2="1"
         operator="arithmetic"
         result="result4"
         in="fbSourceGraphic"
         k1="0"
         k4="0" />
      <feComposite
         id="feComposite4240"
         in2="SourceGraphic"
         operator="in"
         result="result2"
         in="result4" />
    </filter>
    <filter
       id="filter4300"
       x="-0.25"
       width="1.5"
       y="-0.25"
       height="1.5"
       inkscape:menu="Non realistic 3D shaders"
       inkscape:menu-tooltip="Combination of smooth shading and embossing"
       inkscape:label="Emboss shader"
       color-interpolation-filters="sRGB">
      <feGaussianBlur
         id="feGaussianBlur4302"
         result="result8"
         stdDeviation="0.10000000000000001" />
      <feComposite
         id="feComposite4304"
         in2="result8"
         in="result8"
         operator="xor"
         result="result6" />
      <feDisplacementMap
         id="feDisplacementMap4306"
         in2="result6"
         result="result4"
         scale="4.5731707"
         yChannelSelector="A"
         xChannelSelector="A"
         in="result8" />
      <feComposite
         id="feComposite4308"
         in2="result4"
         k1="1"
         in="result4"
         operator="arithmetic"
         result="result2"
         k2="0"
         k3="0"
         k4="0" />
      <feComposite
         id="feComposite4310"
         in2="result8"
         operator="in"
         in="result2"
         result="fbSourceGraphic" />
    </filter>
    <filter
       id="filter4312"
       inkscape:label="Inner Shadow"
       inkscape:menu="Shadows and Glows"
       inkscape:menu-tooltip="Adds a colorizable drop shadow inside"
       color-interpolation-filters="sRGB">
      <feGaussianBlur
         id="feGaussianBlur4314"
         stdDeviation="2"
         result="result8"
         dy="0.5" />
      <feOffset
         id="feOffset4316"
         dx="2"
         dy="2"
         result="result11" />
      <feComposite
         id="feComposite4318"
         in2="result11"
         result="result6"
         in="SourceGraphic"
         operator="in" />
      <feFlood
         id="feFlood4320"
         result="result10"
         in="result6"
         flood-opacity="0.25"
         flood-color="rgb(0,0,0)" />
      <feBlend
         id="feBlend4322"
         in2="result10"
         mode="normal"
         in="result6"
         result="result12" />
      <feComposite
         id="feComposite4324"
         in2="result12"
         result="result2"
         operator="arithmetic"
         in="SourceGraphic"
         k2="1"
         k3="0"
         k1="2"
         k4="0" />
    </filter>
    <filter
       id="filter4374"
       inkscape:menu-tooltip="Draws a black outline around"
       inkscape:menu="ABCs"
       inkscape:label="Black outline"
       color-interpolation-filters="sRGB">
      <feGaussianBlur
         id="feGaussianBlur4376"
         stdDeviation="1"
         in="SourceAlpha"
         result="result0" />
      <feComposite
         id="feComposite4378"
         in2="result0"
         result="result3"
         operator="arithmetic"
         in="SourceGraphic"
         k2="1"
         k3="1.2"
         k1="0"
         k4="0" />
      <feComposite
         id="feComposite4380"
         in2="result3"
         operator="in"
         in="result3"
         result="result4" />
    </filter>
    <filter
       id="filter4394"
       inkscape:label="Matte bevel"
       inkscape:menu="Bevels"
       inkscape:menu-tooltip="Soft, pastel-colored, blurry bevel"
       x="-0.25"
       y="-0.25"
       width="1.5"
       height="1.5"
       color-interpolation-filters="sRGB">
      <feGaussianBlur
         id="feGaussianBlur4396"
         stdDeviation="0.01"
         result="result6" />
      <feComposite
         id="feComposite4398"
         in2="result6"
         operator="in"
         in="result6"
         result="result7" />
      <feGaussianBlur
         id="feGaussianBlur4400"
         stdDeviation="0.5"
         result="result3"
         in="result7" />
      <feComposite
         id="feComposite4402"
         in2="result7"
         operator="over"
         result="result91" />
      <feComposite
         id="feComposite4404"
         in2="result91"
         operator="in"
         in="result3"
         result="result5" />
      <feColorMatrix
         id="feColorMatrix4406"
         values="0 0 0 -1 0 0 0 0 -1 0 0 0 0 -1 0 0 0 0 1 0 "
         result="result4" />
      <feSpecularLighting
         id="feSpecularLighting4408"
         surfaceScale="3"
         specularConstant="2"
         specularExponent="45"
         in="result4"
         result="result11">
        <fePointLight
           id="fePointLight4410"
           x="-5000"
           y="-10000"
           z="20000" />
      </feSpecularLighting>
      <feComposite
         id="feComposite4412"
         in2="result4"
         operator="arithmetic"
         k1="1"
         result="result10"
         k2="0"
         k3="0"
         k4="0" />
      <feComposite
         id="feComposite4414"
         in2="result10"
         operator="arithmetic"
         k2="0.5"
         k3="1"
         in="result5"
         result="result8"
         k1="0"
         k4="0" />
      <feComposite
         id="feComposite4416"
         in2="result8"
         result="result9" />
      <feBlend
         id="feBlend4418"
         in2="result9"
         mode="normal" />
    </filter>
    <filter
       id="filter4444"
       inkscape:label="inset"
       inkscape:menu="Shadows and Glows"
       inkscape:menu-tooltip="Shadowy outer bevel"
       color-interpolation-filters="sRGB">
      <feMorphology
         id="feMorphology4446"
         result="result1"
         in="SourceAlpha"
         operator="dilate"
         radius="1.5" />
      <feGaussianBlur
         id="feGaussianBlur4448"
         stdDeviation="1.5"
         in="result1"
         result="result0" />
      <feDiffuseLighting
         id="feDiffuseLighting4450"
         surfaceScale="-5"
         result="result2">
        <feDistantLight
           id="feDistantLight4452"
           elevation="45"
           azimuth="225" />
      </feDiffuseLighting>
      <feComposite
         id="feComposite4454"
         in2="result0"
         operator="in"
         result="result91" />
      <feComposite
         id="feComposite4456"
         in2="result91"
         in="SourceGraphic"
         result="result92"
         operator="arithmetic"
         k3="0.5"
         k2="1"
         k1="0"
         k4="0" />
    </filter>
    <linearGradient
       inkscape:collect="always"
       xlink:href="#linearGradient4060"
       id="linearGradient4509"
       gradientUnits="userSpaceOnUse"
       x1="185.13712"
       y1="392.68417"
       x2="185.13712"
       y2="218.9339"
       gradientTransform="translate(-26.468994,14.042851)" />
  </defs>
  <sodipodi:namedview
     id="base"
     pagecolor="#ffffff"
     bordercolor="#666666"
     borderopacity="1.0"
     inkscape:pageopacity="0.0"
     inkscape:pageshadow="2"
     inkscape:zoom="0.35355339"
     inkscape:cx="99.715217"
     inkscape:cy="110.6649"
     inkscape:document-units="px"
     inkscape:current-layer="layer3"
     showgrid="false"
     inkscape:window-width="1364"
     inkscape:window-height="747"
     inkscape:window-x="0"
     inkscape:window-y="19"
     inkscape:window-maximized="0"
     fit-margin-left="0"
     fit-margin-top="0"
     fit-margin-right="0"
     fit-margin-bottom="0"
     showguides="false"
     inkscape:guide-bbox="true">
    <sodipodi:guide
       orientation="1,0"
       position="39.59798,86.267027"
       id="guide4825" />
    <sodipodi:guide
       orientation="0,1"
       position="-54.447222,57.982756"
       id="guide4829" />
    <sodipodi:guide
       orientation="0,1"
       position="-91.923882,142.12846"
       id="guide4831" />
  </sodipodi:namedview>
  <metadata
     id="metadata3276">
    <rdf:RDF>
      <cc:Work
         rdf:about="">
        <dc:format>image/svg+xml</dc:format>
        <dc:type
           rdf:resource="http://purl.org/dc/dcmitype/StillImage" />
        <dc:title></dc:title>
      </cc:Work>
    </rdf:RDF>
  </metadata>
  <g
     inkscape:label="Layer 1"
     inkscape:groupmode="layer"
     id="layer1"
     transform="translate(6.8261318,-217.8336)"
     sodipodi:insensitive="true"
     style="display:inline">
    <rect
       style="fill:url(#linearGradient4509);fill-opacity:1;stroke:#b99b24;stroke-width:1.5;stroke-miterlimit:4;stroke-opacity:1;stroke-dasharray:none;filter:url(#filter4222)"
       id="rect3279"
       width="305.11499"
       height="188.57143"
       x="-1.8836268"
       y="223.54788"
       rx="8.4278498"
       ry="8.4278498" />
  </g>
  <g
     inkscape:groupmode="layer"
     id="layer3"
     inkscape:label="bitcoin"
     style="display:inline"
     sodipodi:insensitive="true">
    <g
       transform="matrix(0.78622578,0,0,-0.78622578,-53.893208,388.94091)"
       id="g3235">
      <path
         d="m 179.107,336.899 c -4.274,-17.144 -21.638,-27.576 -38.782,-23.301 -17.139,4.273 -27.572,21.638 -23.295,38.78 4.271,17.145 21.635,27.579 38.774,23.306 17.145,-4.275 27.576,-21.641 23.303,-38.785"
         style="fill:#f68712;fill-opacity:1;fill-rule:nonzero;stroke:none"
         id="path160"
         inkscape:connector-curvature="0" />
      <path
         d="m 155.236,349.262 c -0.99,-3.966 -7.101,-1.951 -9.082,-1.457 l 1.748,7.01 c 1.981,-0.494 8.364,-1.416 7.334,-5.553 z M 154.15,337.95 c -1.085,-4.361 -8.427,-2.003 -10.807,-1.412 l 1.929,7.73 c 2.38,-0.595 10.012,-1.772 8.878,-6.318 z m 8.021,11.249 c 0.637,4.258 -2.604,6.547 -7.038,8.074 l 1.439,5.768 -3.512,0.875 -1.399,-5.616 c -0.923,0.23 -1.871,0.447 -2.814,0.662 l 1.41,5.653 -3.508,0.875 -1.44,-5.765 c -0.764,0.173 -1.514,0.345 -2.241,0.526 l 0.004,0.019 -4.842,1.209 -0.935,-3.75 c 0,0 2.606,-0.598 2.55,-0.634 1.422,-0.356 1.68,-1.297 1.637,-2.042 l -1.639,-6.572 c 0.099,-0.025 0.226,-0.061 0.365,-0.117 -0.117,0.029 -0.242,0.061 -0.371,0.092 l -2.295,-9.206 c -0.174,-0.431 -0.616,-1.08 -1.61,-0.834 0.035,-0.05 -2.552,0.638 -2.552,0.638 l -1.743,-4.019 4.57,-1.139 c 0.849,-0.213 1.682,-0.437 2.502,-0.647 l -1.453,-5.834 3.507,-0.875 1.44,5.773 c 0.958,-0.26 1.887,-0.5 2.797,-0.727 l -1.433,-5.744 3.511,-0.875 1.453,5.822 c 5.986,-1.132 10.488,-0.675 12.384,4.74 1.527,4.36 -0.077,6.875 -3.226,8.515 2.294,0.529 4.021,2.038 4.482,5.155 l 0,0"
         style="fill:#ffffff;fill-opacity:1;fill-rule:nonzero;stroke:none"
         id="path162"
         inkscape:connector-curvature="0" />
      <path
         d="m 199.316,322.604 c 1.89,0 3.671,0.465 5.344,1.378 1.677,0.914 3.126,2.147 4.339,3.684 1.212,1.544 2.172,3.284 2.873,5.227 0.7,1.942 1.053,3.97 1.053,6.079 0,2.591 -0.432,4.612 -1.296,6.073 -0.863,1.455 -2.46,2.187 -4.779,2.187 -0.76,0 -1.738,-0.145 -2.953,-0.404 -1.218,-0.274 -2.308,-0.846 -3.284,-1.705 l -5.343,-22.188 c 0.322,-0.058 0.607,-0.112 0.851,-0.162 0.238,-0.055 0.501,-0.094 0.762,-0.121 0.278,-0.032 0.594,-0.047 0.978,-0.047 0.383,0 0.861,-0.001 1.454,-0.001 l 0.001,0 z m 10.526,34.671 c 2.595,0 4.837,-0.464 6.722,-1.378 1.893,-0.922 3.454,-2.164 4.708,-3.726 1.235,-1.569 2.155,-3.405 2.75,-5.508 0.59,-2.108 0.886,-4.377 0.886,-6.803 0,-3.729 -0.684,-7.25 -2.063,-10.571 -1.379,-3.325 -3.25,-6.209 -5.63,-8.669 -2.378,-2.456 -5.185,-4.393 -8.423,-5.825 -3.234,-1.431 -6.749,-2.147 -10.523,-2.147 -0.487,0 -1.346,0.013 -2.558,0.039 -1.211,0.024 -2.605,0.149 -4.165,0.36 -1.57,0.22 -3.229,0.543 -4.983,0.978 -1.752,0.426 -3.416,1.022 -4.982,1.781 l 14.011,58.876 12.55,1.945 -5.017,-20.893 c 1.075,0.485 2.157,0.86 3.237,1.132 1.081,0.27 2.24,0.409 3.48,0.409 l 0,0"
         style="fill:#464648;fill-opacity:1;fill-rule:nonzero;stroke:none"
         id="path164"
         inkscape:connector-curvature="0" />
      <path
         d="m 243.758,361.567 c -1.673,0 -3.189,0.498 -4.536,1.496 -1.356,0.992 -2.028,2.519 -2.028,4.578 0,1.131 0.229,2.193 0.685,3.195 0.463,1 1.069,1.861 1.827,2.594 0.756,0.725 1.633,1.305 2.629,1.742 1.002,0.43 2.069,0.645 3.205,0.645 1.671,0 3.18,-0.498 4.532,-1.496 1.345,-1.003 2.022,-2.53 2.022,-4.577 0,-1.136 -0.228,-2.202 -0.688,-3.202 -0.457,-1 -1.063,-1.86 -1.821,-2.593 -0.751,-0.726 -1.635,-1.304 -2.629,-1.738 -1.003,-0.437 -2.066,-0.644 -3.198,-0.644 l 0,0 z m -5.833,-47.787 -11.986,0 10.122,42.597 12.069,0 -10.205,-42.597"
         style="fill:#464648;fill-opacity:1;fill-rule:nonzero;stroke:none"
         id="path166"
         inkscape:connector-curvature="0" />
      <path
         d="m 258.633,366.988 12.555,1.946 -3.082,-12.557 13.445,0 -2.428,-9.878 -13.365,0 -3.559,-14.9 c -0.328,-1.242 -0.515,-2.402 -0.567,-3.481 -0.058,-1.082 0.078,-2.012 0.403,-2.795 0.322,-0.785 0.9,-1.39 1.741,-1.819 0.836,-0.434 2.032,-0.653 3.602,-0.653 1.293,0 2.553,0.123 3.771,0.367 1.211,0.239 2.438,0.573 3.68,1.011 l 0.894,-9.236 c -1.62,-0.594 -3.374,-1.105 -5.264,-1.536 -1.892,-0.435 -4.133,-0.645 -6.723,-0.645 -3.725,0 -6.611,0.552 -8.668,1.653 -2.055,1.11 -3.507,2.624 -4.375,4.542 -0.858,1.911 -1.24,4.114 -1.134,6.597 0.111,2.487 0.486,5.102 1.134,7.856 l 7.94,33.528"
         style="fill:#464648;fill-opacity:1;fill-rule:nonzero;stroke:none"
         id="path168"
         inkscape:connector-curvature="0" />
      <path
         d="m 281.022,330.785 c 0,3.669 0.594,7.129 1.781,10.368 1.185,3.242 2.892,6.077 5.107,8.51 2.207,2.421 4.896,4.339 8.061,5.747 3.15,1.401 6.677,2.106 10.564,2.106 2.433,0 4.606,-0.23 6.518,-0.691 1.92,-0.465 3.657,-1.065 5.228,-1.82 l -4.134,-9.4 c -1.08,0.438 -2.201,0.825 -3.36,1.174 -1.16,0.358 -2.576,0.53 -4.251,0.53 -4.001,0 -7.164,-1.379 -9.518,-4.129 -2.345,-2.751 -3.526,-6.454 -3.526,-11.1 0,-2.753 0.594,-4.978 1.786,-6.681 1.186,-1.703 3.377,-2.55 6.558,-2.55 1.57,0 3.085,0.164 4.536,0.483 1.462,0.325 2.753,0.733 3.89,1.214 l 0.895,-9.635 c -1.516,-0.588 -3.188,-1.12 -5.022,-1.584 -1.838,-0.45 -4.026,-0.682 -6.563,-0.682 -3.349,0 -6.184,0.49 -8.503,1.455 -2.32,0.98 -4.237,2.28 -5.747,3.929 -1.518,1.652 -2.608,3.581 -3.282,5.794 -0.674,2.213 -1.018,4.537 -1.018,6.962 l 0,0"
         style="fill:#464648;fill-opacity:1;fill-rule:nonzero;stroke:none"
         id="path170"
         inkscape:connector-curvature="0" />
      <path
         d="m 340.261,347.309 c -1.777,0 -3.348,-0.516 -4.693,-1.535 -1.35,-1.031 -2.484,-2.327 -3.398,-3.891 -0.924,-1.569 -1.609,-3.281 -2.072,-5.142 -0.459,-1.866 -0.684,-3.628 -0.684,-5.303 0,-2.703 0.436,-4.809 1.293,-6.324 0.869,-1.506 2.43,-2.264 4.699,-2.264 1.783,0 3.346,0.512 4.699,1.542 1.342,1.022 2.477,2.319 3.398,3.886 0.918,1.561 1.609,3.279 2.072,5.142 0.453,1.86 0.684,3.633 0.684,5.305 0,2.695 -0.434,4.806 -1.299,6.319 -0.864,1.508 -2.432,2.265 -4.699,2.265 z m -5.991,-34.662 c -2.861,0 -5.346,0.435 -7.454,1.299 -2.102,0.863 -3.843,2.074 -5.22,3.643 -1.379,1.563 -2.411,3.413 -3.118,5.547 -0.707,2.132 -1.047,4.492 -1.047,7.079 0,3.245 0.521,6.49 1.574,9.725 1.048,3.242 2.603,6.156 4.661,8.744 2.042,2.593 4.561,4.713 7.527,6.366 2.963,1.642 6.371,2.468 10.199,2.468 2.809,0 5.281,-0.437 7.418,-1.299 2.128,-0.862 3.879,-2.082 5.264,-3.645 1.37,-1.57 2.411,-3.413 3.111,-5.549 0.705,-2.128 1.053,-4.495 1.053,-7.084 0,-3.236 -0.514,-6.48 -1.534,-9.724 -1.021,-3.229 -2.536,-6.149 -4.536,-8.744 -1.996,-2.589 -4.492,-4.708 -7.49,-6.355 -2.994,-1.645 -6.466,-2.471 -10.407,-2.471 l -0.001,0"
         style="fill:#464648;fill-opacity:1;fill-rule:nonzero;stroke:none"
         id="path172"
         inkscape:connector-curvature="0" />
      <path
         d="m 377.128,361.567 c -1.672,0 -3.188,0.498 -4.532,1.496 -1.35,0.992 -2.028,2.519 -2.028,4.578 0,1.131 0.233,2.193 0.69,3.195 0.457,1 1.066,1.861 1.824,2.594 0.753,0.725 1.638,1.305 2.632,1.742 0.996,0.43 2.062,0.645 3.194,0.645 1.676,0 3.19,-0.498 4.538,-1.496 1.349,-1.003 2.03,-2.53 2.03,-4.577 0,-1.136 -0.242,-2.202 -0.695,-3.202 -0.453,-1 -1.062,-1.86 -1.817,-2.593 -0.76,-0.726 -1.634,-1.304 -2.63,-1.738 -1.004,-0.437 -2.068,-0.644 -3.206,-0.644 z m -5.824,-47.787 -11.997,0 10.123,42.597 12.075,0 -10.201,-42.597"
         style="fill:#464648;fill-opacity:1;fill-rule:nonzero;stroke:none"
         id="path174-8"
         inkscape:connector-curvature="0" />
      <path
         d="m 390.139,354.436 c 0.91,0.266 1.926,0.586 3.031,0.934 1.109,0.349 2.348,0.672 3.732,0.964 1.369,0.302 2.914,0.545 4.613,0.734 1.699,0.194 3.635,0.287 5.786,0.287 6.322,0 10.68,-1.841 13.086,-5.511 2.404,-3.672 2.82,-8.696 1.26,-15.064 l -5.514,-23 -12.066,0 5.344,22.515 c 0.326,1.407 0.582,2.766 0.771,4.094 0.191,1.316 0.18,2.475 -0.043,3.48 -0.213,0.992 -0.715,1.804 -1.493,2.434 -0.792,0.618 -1.987,0.929 -3.608,0.929 -1.563,0 -3.153,-0.168 -4.776,-0.492 l -7.857,-32.96 -12.071,0 9.805,40.656 0,0"
         style="fill:#464648;fill-opacity:1;fill-rule:nonzero;stroke:none"
         id="path176-8"
         inkscape:connector-curvature="0" />
    </g>
  </g>
  <g
     inkscape:groupmode="layer"
     id="layer2"
     inkscape:label="paypal"
     style="display:none"
     sodipodi:insensitive="true">
    <g
       transform="matrix(1.5739745,0,0,-1.5739745,-245.13265,685.97385)"
       id="g3417">
      <path
         d="m 305.753,353.966 c -0.476,-2.276 -2.289,-3.267 -4.484,-3.367 -1.908,-0.097 -3.628,1.586 -2.387,3.566 0.956,1.682 3.628,2.079 5.25,2.079 0.667,0 1.434,0 2.1,0 -0.191,-0.792 -0.289,-1.487 -0.479,-2.278 z m -0.572,17.425 c -4.103,0 -7.348,-1.089 -9.829,-1.584 l -0.765,-6.237 c 1.242,0.594 5.154,1.683 8.4,1.782 3.245,0.099 5.153,-0.593 4.486,-3.366 -9.64,0 -16.131,-1.979 -17.467,-8.218 -1.91,-10.692 9.832,-10.395 14.508,-5.742 l -0.573,-2.574 8.59,0 3.723,17.029 c 1.526,7.228 -5.06,9.009 -11.073,8.91"
         style="fill:#387fb5;fill-opacity:1;fill-rule:evenodd;stroke:none"
         id="path174"
         inkscape:connector-curvature="0" />
      <path
         d="m 323.602,378.126 -7.106,-32.674 8.725,0 7.195,32.674 -8.814,0 0,0"
         style="fill:#387fb5;fill-opacity:1;fill-rule:evenodd;stroke:none"
         id="path176"
         inkscape:connector-curvature="0" />
      <path
         d="m 283.228,366.937 c -0.575,-2.476 -3.062,-4.456 -5.455,-4.456 l -4.304,0 1.914,8.91 4.592,0 c 2.392,0 3.826,-1.98 3.253,-4.454 z m 0.285,11.088 -15.974,0 -7.08,-32.573 9.279,0 2.392,10.792 6.601,0 c 6.504,0 11.861,3.96 13.297,10.693 1.625,7.623 -3.923,11.088 -8.515,11.088"
         style="fill:#387fb5;fill-opacity:1;fill-rule:evenodd;stroke:none"
         id="path178"
         inkscape:connector-curvature="0" />
      <path
         d="m 222.182,353.966 c -0.471,-2.276 -2.357,-3.267 -4.525,-3.367 -1.886,-0.097 -3.489,1.586 -2.263,3.566 0.942,1.682 3.582,2.079 5.091,2.079 0.755,0 1.414,0 2.169,0 -0.189,-0.792 -0.377,-1.487 -0.472,-2.278 z m -0.659,17.425 c -4.054,0 -7.261,-1.089 -9.618,-1.584 l -0.754,-6.237 c 1.132,0.594 4.998,1.683 8.203,1.782 3.206,0.099 5.092,-0.593 4.525,-3.366 -9.522,0 -15.933,-1.979 -17.253,-8.218 -1.886,-10.692 9.71,-10.395 14.235,-5.742 l -0.564,-2.574 8.579,0 3.677,17.029 c 1.509,7.228 -5.091,9.009 -11.03,8.91"
         style="fill:#295681;fill-opacity:1;fill-rule:evenodd;stroke:none"
         id="path180"
         inkscape:connector-curvature="0" />
      <path
         d="m 236.292,370.923 8.579,0 1.383,-15.169 8.394,15.169 8.854,0 -20.385,-36.305 -9.593,0 6.272,10.674 -3.504,25.631 0,0"
         style="fill:#295681;fill-opacity:1;fill-rule:evenodd;stroke:none"
         id="path182"
         inkscape:connector-curvature="0" />
      <path
         d="m 199.896,366.937 c -0.575,-2.476 -2.973,-4.456 -5.371,-4.456 l -4.411,0 2.014,8.91 4.603,0 c 2.302,0 3.836,-1.98 3.165,-4.454 z m 0.288,11.088 -16.017,0 -7.096,-32.573 9.399,0 2.301,10.792 6.713,0 c 6.426,0 11.797,3.96 13.235,10.693 1.63,7.623 -3.836,11.088 -8.535,11.088"
         style="fill:#295681;fill-opacity:1;fill-rule:evenodd;stroke:none"
         id="path184"
         inkscape:connector-curvature="0" />
      <path
         d="m 334.299,373.902 0,3.852 -1.437,0 0,0.516 3.462,0 0,-0.516 -1.445,0 0,-3.852 -0.58,0"
         style="fill:#295681;fill-opacity:1;fill-rule:nonzero;stroke:none"
         id="path186"
         inkscape:connector-curvature="0" />
      <path
         d="m 336.897,373.902 0,4.368 0.865,0 1.036,-3.091 c 0.096,-0.288 0.165,-0.503 0.209,-0.646 0.05,0.159 0.128,0.392 0.233,0.699 l 1.049,3.038 0.777,0 0,-4.368 -0.556,0 0,3.657 -1.274,-3.657 -0.521,0 -1.262,3.717 0,-3.717 -0.556,0"
         style="fill:#295681;fill-opacity:1;fill-rule:nonzero;stroke:none"
         id="path188"
         inkscape:connector-curvature="0" />
    </g>
  </g>
  <g
     inkscape:groupmode="layer"
     id="layer4"
     inkscape:label="donate with"
     style="display:inline"
     sodipodi:insensitive="true">
    <text
       xml:space="preserve"
       style="font-size:28px;font-style:normal;font-variant:normal;font-weight:600;font-stretch:normal;line-height:125%;letter-spacing:0px;word-spacing:0px;opacity:0.6;fill:#000000;fill-opacity:1;stroke:none;display:inline;filter:url(#filter4312);font-family:FreeSans;-inkscape-font-specification:FreeSans Semi-Bold"
       x="37.520725"
       y="78.394119"
       id="text4269"
       sodipodi:linespacing="125%"><tspan
         sodipodi:role="line"
         id="tspan4271"
         x="37.520725"
         y="78.394119">Donate with</tspan></text>
  </g>
</svg>
